# xmcd
#
# Track frame offsets:
#	183
#	20200
#	40200
#	57840
#	71768
#	87903
#	104815
#	123925
#	136770
#	149233
#	174663
#
# Disc length: 2759 seconds
#
# Revision: 1830275410
# Processed by: cddbd v1.5.2PL0 Copyright (c) Steve Scherf et al.
# Submitted via: EZCDAudioConverter 8.0.7.1
#
DISCID=a90ac50b
DTITLE=Eric Clapton - Backtrackin’ [CD1) (Polydor 821 937-2)
DYEAR=1984
DGENRE=Blues 
TTITLE0=Eric Clapton - I Shot the Sheriff
TTITLE1=Eric Clapton - Knockin’ on Heaven’s Door
TTITLE2=Eric Clapton - Lay Down Sally
TTITLE3=Eric Clapton - Promises
TTITLE4=Eric Clapton - Swing Low, Sweet Chariot
TTITLE5=Eric Clapton - Wonderful Tonight
TTITLE6=Cream - Sunshine of Your Love
TTITLE7=Cream - Tales of Brave Ulysses
TTITLE8=Cream - Badge
TTITLE9=Derek and the Dominos - Little Wing
TTITLE10=Derek and the Dominos - Layla
EXTD=
EXTT0=
EXTT1=
EXTT2=
EXTT3=
EXTT4=
EXTT5=
EXTT6=
EXTT7=
EXTT8=
EXTT9=
EXTT10=
PLAYORDER=
